<svg width="57" height="57" viewBox="0 0 57 57" fill="none" xmlns="http://www.w3.org/2000/svg">
<g filter="url(#filter0_d_307_1223)">
<circle cx="28.5" cy="24.5" r="24.5" fill="white"/>
</g>
<circle cx="28.5" cy="24.5" r="21.5" fill="#660018"/>
<g clip-path="url(#clip0_307_1223)">
<path fill-rule="evenodd" clip-rule="evenodd" d="M27.0425 18.9175C27.4292 18.5312 27.9534 18.3143 28.5 18.3143C29.0466 18.3143 29.5708 18.5312 29.9575 18.9175L37.7372 26.6945C37.9287 26.8861 38.0806 27.1135 38.1842 27.3638C38.2878 27.6141 38.3411 27.8823 38.341 28.1532C38.341 28.424 38.2876 28.6922 38.1838 28.9425C38.0801 29.1927 37.9281 29.4201 37.7366 29.6115C37.545 29.803 37.3175 29.9549 37.0673 30.0585C36.817 30.1621 36.5488 30.2154 36.2779 30.2153C36.007 30.2153 35.7388 30.1619 35.4886 30.0581C35.2383 29.9544 35.011 29.8024 34.8195 29.6109L28.5 23.2927L22.1805 29.6122C21.9903 29.8093 21.7628 29.9665 21.5112 30.0748C21.2596 30.183 20.989 30.24 20.7152 30.2425C20.4413 30.245 20.1697 30.1929 19.9162 30.0894C19.6627 29.9858 19.4323 29.8327 19.2386 29.6392C19.0448 29.4456 18.8916 29.2154 18.7877 28.962C18.6839 28.7086 18.6316 28.437 18.6339 28.1631C18.6361 27.8893 18.6929 27.6186 18.8008 27.3669C18.9088 27.1152 19.0658 26.8876 19.2627 26.6972L27.0425 18.9175Z" fill="white"/>
</g>
<defs>
<filter id="filter0_d_307_1223" x="0" y="0" width="57" height="57" filterUnits="userSpaceOnUse" color-interpolation-filters="sRGB">
<feFlood flood-opacity="0" result="BackgroundImageFix"/>
<feColorMatrix in="SourceAlpha" type="matrix" values="0 0 0 0 0 0 0 0 0 0 0 0 0 0 0 0 0 0 127 0" result="hardAlpha"/>
<feOffset dy="4"/>
<feGaussianBlur stdDeviation="2"/>
<feComposite in2="hardAlpha" operator="out"/>
<feColorMatrix type="matrix" values="0 0 0 0 0 0 0 0 0 0 0 0 0 0 0 0 0 0 0.25 0"/>
<feBlend mode="normal" in2="BackgroundImageFix" result="effect1_dropShadow_307_1223"/>
<feBlend mode="normal" in="SourceGraphic" in2="effect1_dropShadow_307_1223" result="shape"/>
</filter>
<clipPath id="clip0_307_1223">
<rect width="33" height="33" fill="white" transform="translate(12 8)"/>
</clipPath>
</defs>
</svg>
