<svg width="25" height="26" viewBox="0 0 25 26" fill="none" xmlns="http://www.w3.org/2000/svg">
<path d="M22.0215 18.9638C21.2461 18.1825 19.3682 17.0424 18.4571 16.5829C17.2705 15.9853 17.1729 15.9364 16.2403 16.6293C15.6182 17.0917 15.2046 17.5048 14.4766 17.3495C13.7486 17.1943 12.1665 16.3188 10.7813 14.9379C9.39603 13.557 8.46976 11.9291 8.314 11.2035C8.15824 10.4779 8.57816 10.0693 9.03617 9.44572C9.68168 8.56681 9.63285 8.42033 9.08109 7.2338C8.65091 6.31095 7.47757 4.4506 6.69339 3.67912C5.85453 2.8505 5.85453 2.99699 5.314 3.2216C4.87393 3.40671 4.45175 3.63177 4.05277 3.89396C3.27152 4.413 2.83793 4.84416 2.5347 5.4921C2.23148 6.14005 2.09525 7.6591 3.66117 10.5038C5.22709 13.3485 6.32572 14.8031 8.59964 17.0707C10.8736 19.3383 12.6221 20.5575 15.1783 21.9911C18.3404 23.7621 19.5533 23.4169 20.2032 23.1142C20.8531 22.8114 21.2862 22.3818 21.8062 21.6005C22.069 21.2022 22.2946 20.7805 22.48 20.3407C22.7051 19.8022 22.8516 19.8022 22.0215 18.9638Z" stroke="black" stroke-width="2" stroke-miterlimit="10"/>
</svg>
