<svg width="29" height="29" viewBox="0 0 29 29" fill="none" xmlns="http://www.w3.org/2000/svg">
<path d="M8.45898 20.5574L13.7914 20.5393L25.43 9.01177C25.8868 8.55502 26.1381 7.94843 26.1381 7.30318C26.1381 6.65793 25.8868 6.05135 25.43 5.5946L23.5136 3.67818C22.6001 2.76468 21.0063 2.76951 20.1001 3.67456L8.45898 15.2045V20.5574ZM21.805 5.38676L23.7251 7.29956L21.7954 9.21114L19.8789 7.29593L21.805 5.38676ZM10.8757 16.2122L18.1619 8.99485L20.0783 10.9113L12.7933 18.1262L10.8757 18.1323V16.2122Z" fill="black"/>
<path d="M6.04167 25.375H22.9583C24.2911 25.375 25.375 24.2911 25.375 22.9583V12.4845L22.9583 14.9012V22.9583H9.85758C9.82617 22.9583 9.79354 22.9704 9.76213 22.9704C9.72225 22.9704 9.68238 22.9595 9.64129 22.9583H6.04167V6.04167H14.3151L16.7318 3.625H6.04167C4.70887 3.625 3.625 4.70887 3.625 6.04167V22.9583C3.625 24.2911 4.70887 25.375 6.04167 25.375Z" fill="black"/>
</svg>
