<svg width="50" height="100" viewBox="0 0 50 100" fill="none" xmlns="http://www.w3.org/2000/svg">
<path d="M25 0C31.9035 0 37.5 5.59648 37.5 12.5C37.5 19.4035 31.9035 25 25 25C18.0965 25 12.5 19.4035 12.5 12.5C12.5 5.59648 18.0965 0 25 0ZM48.2975 69.1756L38.9225 31.6756C38.6689 30.6614 38.0837 29.7611 37.2597 29.1178C36.4358 28.4745 35.4204 28.125 34.375 28.125H32.1563C27.7205 30.1646 22.4707 30.2527 17.8438 28.125H15.625C14.5797 28.125 13.5643 28.4745 12.7403 29.1178C11.9164 29.7611 11.3311 30.6614 11.0776 31.6756L1.70256 69.1756C0.963892 72.1299 3.19983 75 6.25002 75H17.1875V95.3125C17.1875 97.9014 19.2862 100 21.875 100H28.125C30.7139 100 32.8125 97.9014 32.8125 95.3125V75H43.75C46.7951 75 49.0373 72.1346 48.2975 69.1756Z" fill="white"/>
</svg>
