<svg width="27" height="28" viewBox="0 0 27 28" fill="none" xmlns="http://www.w3.org/2000/svg">
<path fill-rule="evenodd" clip-rule="evenodd" d="M8.15625 11.9521C8.15625 10.5349 8.71925 9.17569 9.7214 8.17355C10.7235 7.1714 12.0827 6.6084 13.5 6.6084C14.9173 6.6084 16.2765 7.1714 17.2786 8.17355C18.2807 9.17569 18.8438 10.5349 18.8438 11.9521C18.8438 13.3694 18.2807 14.7286 17.2786 15.7308C16.2765 16.7329 14.9173 17.2959 13.5 17.2959C12.0827 17.2959 10.7235 16.7329 9.7214 15.7308C8.71925 14.7286 8.15625 13.3694 8.15625 11.9521ZM13.5 8.2959C12.5303 8.2959 11.6003 8.68111 10.9146 9.36679C10.229 10.0525 9.84375 10.9825 9.84375 11.9521C9.84375 12.9218 10.229 13.8518 10.9146 14.5375C11.6003 15.2232 12.5303 15.6084 13.5 15.6084C14.4697 15.6084 15.3997 15.2232 16.0854 14.5375C16.771 13.8518 17.1562 12.9218 17.1562 11.9521C17.1562 10.9825 16.771 10.0525 16.0854 9.36679C15.3997 8.68111 14.4697 8.2959 13.5 8.2959Z" fill="black"/>
<path fill-rule="evenodd" clip-rule="evenodd" d="M3.96454 10.6663C4.15733 8.33412 5.21982 6.15967 6.94117 4.5744C8.66252 2.98913 10.9169 2.10891 13.257 2.1084H13.743C16.0831 2.10891 18.3376 2.98913 20.0589 4.5744C21.7803 6.15967 22.8427 8.33412 23.0355 10.6663C23.25 13.2643 22.4473 15.844 20.7968 17.8618L15.4047 24.4554C15.1739 24.7376 14.8833 24.965 14.5539 25.1211C14.2245 25.2773 13.8646 25.3583 13.5 25.3583C13.1355 25.3583 12.7755 25.2773 12.4461 25.1211C12.1168 24.965 11.8262 24.7376 11.5954 24.4554L6.20329 17.8618C4.55272 15.844 3.75007 13.2643 3.96454 10.6663ZM13.257 3.7959C11.3407 3.79671 9.49472 4.51775 8.08519 5.816C6.67566 7.11425 5.80558 8.89487 5.64754 10.8046C5.46898 12.9668 6.13691 15.1138 7.51054 16.793L12.9027 23.3878C12.9751 23.4765 13.0664 23.548 13.17 23.5971C13.2735 23.6462 13.3866 23.6716 13.5012 23.6716C13.6157 23.6716 13.7289 23.6462 13.8324 23.5971C13.9359 23.548 14.0272 23.4765 14.0997 23.3878L19.4918 16.793C20.8646 15.1134 21.5317 12.9665 21.3525 10.8046C21.1945 8.89468 20.3242 7.1139 18.9145 5.81562C17.5047 4.51734 15.6584 3.79643 13.7419 3.7959H13.257Z" fill="black"/>
</svg>
