<svg width="38" height="100" viewBox="0 0 38 100" fill="none" xmlns="http://www.w3.org/2000/svg">
<g clip-path="url(#clip0_832_2794)">
<path d="M18.7773 0C25.6909 0 31.2955 5.59648 31.2955 12.5C31.2955 19.4035 25.6909 25 18.7773 25C11.8637 25 6.2591 19.4035 6.2591 12.5C6.2591 5.59648 11.8637 0 18.7773 0ZM28.1659 28.125H25.944C21.5018 30.1646 16.2443 30.2527 11.6106 28.125H9.38865C4.20338 28.125 0 32.3223 0 37.5V64.0625C0 66.6514 2.10169 68.75 4.69432 68.75H7.82387V95.3125C7.82387 97.9014 9.92556 100 12.5182 100H25.0364C27.629 100 29.7307 97.9014 29.7307 95.3125V68.75H32.8603C35.4529 68.75 37.5546 66.6514 37.5546 64.0625V37.5C37.5546 32.3223 33.3512 28.125 28.1659 28.125Z" fill="white"/>
</g>
<defs>
<clipPath id="clip0_832_2794">
<rect width="37.5546" height="100" fill="white"/>
</clipPath>
</defs>
</svg>
