<svg width="154" height="161" viewBox="0 0 154 161" fill="none" xmlns="http://www.w3.org/2000/svg">
<g clip-path="url(#clip0_1846_2931)">
<rect width="154" height="161" rx="10" fill="#F2F2F2"/>
<g clip-path="url(#clip1_1846_2931)">
<path d="M148 154.671C148 162.713 145.689 169.612 141.066 175.367C136.444 181.122 130.879 184 124.37 184H29.6297C23.1214 184 17.556 181.122 12.9336 175.367C8.3112 169.612 6 162.713 6 154.671C6 148.399 6.31432 142.478 6.94297 136.907C7.57161 131.336 8.73646 125.729 10.4375 120.084C12.1385 114.439 14.3018 109.607 16.9273 105.585C19.5529 101.564 23.0289 98.2806 27.3555 95.735C31.682 93.1895 36.6557 91.9167 42.2766 91.9167C51.9651 101.361 63.5396 106.083 77 106.083C90.4604 106.083 102.035 101.361 111.723 91.9167C117.344 91.9167 122.318 93.1895 126.645 95.735C130.971 98.2806 134.447 101.564 137.073 105.585C139.698 109.607 141.861 114.439 143.562 120.084C145.264 125.729 146.428 131.336 147.057 136.907C147.686 142.478 148 148.399 148 154.671ZM119.6 56.5C119.6 68.2318 115.44 78.248 107.12 86.5488C98.7992 94.8496 88.7594 99 77 99C65.2406 99 55.2008 94.8496 46.8805 86.5488C38.5602 78.248 34.4 68.2318 34.4 56.5C34.4 44.7682 38.5602 34.752 46.8805 26.4512C55.2008 18.1504 65.2406 14 77 14C88.7594 14 98.7992 18.1504 107.12 26.4512C115.44 34.752 119.6 44.7682 119.6 56.5Z" fill="#999999"/>
</g>
</g>
<defs>
<clipPath id="clip0_1846_2931">
<rect width="154" height="161" rx="10" fill="white"/>
</clipPath>
<clipPath id="clip1_1846_2931">
<rect width="142" height="170" fill="white" transform="translate(6 14)"/>
</clipPath>
</defs>
</svg>
