<svg width="26" height="26" viewBox="0 0 26 26" fill="none" xmlns="http://www.w3.org/2000/svg">
<path fill-rule="evenodd" clip-rule="evenodd" d="M6.50065 2.16666C5.92602 2.16666 5.37492 2.39493 4.96859 2.80126C4.56226 3.20759 4.33398 3.75869 4.33398 4.33332V21.6667C4.33398 22.2413 4.56226 22.7924 4.96859 23.1987C5.37492 23.605 5.92602 23.8333 6.50065 23.8333H19.5007C20.0753 23.8333 20.6264 23.605 21.0327 23.1987C21.439 22.7924 21.6673 22.2413 21.6673 21.6667V6.94849C21.6672 6.3739 21.4388 5.82289 21.0325 5.41666L18.4173 2.80149C18.0111 2.39513 17.4601 2.16678 16.8855 2.16666H6.50065ZM6.50065 4.33332H16.8855L19.5007 6.94849V21.6667H6.50065V4.33332ZM17.5918 11.6924C17.6953 11.5925 17.7778 11.4729 17.8346 11.3408C17.8914 11.2086 17.9213 11.0664 17.9225 10.9226C17.9238 10.7787 17.8963 10.6361 17.8419 10.503C17.7874 10.3698 17.707 10.2489 17.6052 10.1471C17.5035 10.0454 17.3826 9.96499 17.2494 9.91052C17.1163 9.85604 16.9736 9.82863 16.8298 9.82988C16.686 9.83113 16.5438 9.86102 16.4116 9.9178C16.2795 9.97457 16.1599 10.0571 16.06 10.1606L11.4645 14.7572L9.93157 13.2242C9.72725 13.0269 9.4536 12.9177 9.16955 12.9202C8.8855 12.9226 8.61379 13.0366 8.41293 13.2374C8.21207 13.4383 8.09814 13.71 8.09567 13.9941C8.0932 14.2781 8.2024 14.5518 8.39973 14.7561L10.6206 16.978C10.7312 17.0887 10.8626 17.1765 11.0072 17.2365C11.1519 17.2964 11.3069 17.3272 11.4634 17.3272C11.6199 17.3272 11.7749 17.2964 11.9196 17.2365C12.0642 17.1765 12.1956 17.0887 12.3062 16.978L17.5918 11.6924Z" fill="black"/>
</svg>
