<svg width="29" height="29" viewBox="0 0 29 29" fill="none" xmlns="http://www.w3.org/2000/svg">
<path d="M8.45899 25.375C7.79441 25.375 7.22568 25.1386 6.75282 24.6657C6.27996 24.1928 6.04313 23.6237 6.04232 22.9583V7.25C5.69996 7.25 5.41318 7.134 5.18199 6.902C4.95079 6.67 4.83479 6.38322 4.83399 6.04167C4.83318 5.70011 4.94918 5.41333 5.18199 5.18133C5.41479 4.94933 5.70157 4.83333 6.04232 4.83333H10.8757C10.8757 4.49097 10.9917 4.20419 11.2237 3.973C11.4557 3.74181 11.7424 3.62581 12.084 3.625H16.9173C17.2597 3.625 17.5469 3.741 17.7789 3.973C18.0109 4.205 18.1265 4.49178 18.1257 4.83333H22.959C23.3014 4.83333 23.5885 4.94933 23.8205 5.18133C24.0525 5.41333 24.1681 5.70011 24.1673 6.04167C24.1665 6.38322 24.0505 6.6704 23.8193 6.90321C23.5881 7.13601 23.3014 7.25161 22.959 7.25V22.9583C22.959 23.6229 22.7226 24.192 22.2497 24.6657C21.7768 25.1394 21.2077 25.3758 20.5423 25.375H8.45899ZM20.5423 7.25H8.45899V22.9583H20.5423V7.25ZM12.084 20.5417C12.4263 20.5417 12.7135 20.4257 12.9455 20.1937C13.1775 19.9617 13.2931 19.6749 13.2923 19.3333V10.875C13.2923 10.5326 13.1763 10.2459 12.9443 10.0147C12.7123 9.78347 12.4255 9.66747 12.084 9.66667C11.7424 9.66586 11.4557 9.78186 11.2237 10.0147C10.9917 10.2475 10.8757 10.5342 10.8757 10.875V19.3333C10.8757 19.6757 10.9917 19.9629 11.2237 20.1949C11.4557 20.4269 11.7424 20.5425 12.084 20.5417ZM16.9173 20.5417C17.2597 20.5417 17.5469 20.4257 17.7789 20.1937C18.0109 19.9617 18.1265 19.6749 18.1257 19.3333V10.875C18.1257 10.5326 18.0097 10.2459 17.7777 10.0147C17.5457 9.78347 17.2589 9.66747 16.9173 9.66667C16.5758 9.66586 16.289 9.78186 16.057 10.0147C15.825 10.2475 15.709 10.5342 15.709 10.875V19.3333C15.709 19.6757 15.825 19.9629 16.057 20.1949C16.289 20.4269 16.5758 20.5425 16.9173 20.5417Z" fill="black"/>
</svg>
