<svg width="22" height="23" viewBox="0 0 22 23" fill="none" xmlns="http://www.w3.org/2000/svg">
<circle cx="11" cy="11.127" r="11" fill="#F9A302"/>
<path fill-rule="evenodd" clip-rule="evenodd" d="M11.5 9.29297C11.9973 9.29297 12.4742 9.09542 12.8258 8.74379C13.1775 8.39216 13.375 7.91525 13.375 7.41797C13.375 6.92069 13.1775 6.44377 12.8258 6.09214C12.4742 5.74051 11.9973 5.54297 11.5 5.54297C11.0027 5.54297 10.5258 5.74051 10.1742 6.09214C9.82254 6.44377 9.625 6.92069 9.625 7.41797C9.625 7.91525 9.82254 8.39216 10.1742 8.74379C10.5258 9.09542 11.0027 9.29297 11.5 9.29297ZM11.5 10.6992C12.3702 10.6992 13.2048 10.3535 13.8202 9.73816C14.4355 9.12281 14.7812 8.28821 14.7812 7.41797C14.7812 6.54773 14.4355 5.71313 13.8202 5.09777C13.2048 4.48242 12.3702 4.13672 11.5 4.13672C10.6298 4.13672 9.79516 4.48242 9.17981 5.09777C8.56445 5.71313 8.21875 6.54773 8.21875 7.41797C8.21875 8.28821 8.56445 9.12281 9.17981 9.73816C9.79516 10.3535 10.6298 10.6992 11.5 10.6992ZM12.4375 11.8477C12.4401 11.6744 12.3751 11.507 12.2562 11.381C12.1373 11.2549 11.974 11.1802 11.8009 11.1727C11.7007 11.1696 11.6003 11.1681 11.5 11.168C7.89062 11.168 4.9375 13.043 4.9375 14.918C4.9375 15.5396 5.18443 16.1357 5.62397 16.5753C6.06351 17.0148 6.65965 17.2617 7.28125 17.2617H15.4844C15.6709 17.2617 15.8497 17.1876 15.9816 17.0558C16.1134 16.9239 16.1875 16.7451 16.1875 16.5586C16.1875 16.3721 16.1134 16.1933 15.9816 16.0614C15.8497 15.9295 15.6709 15.8555 15.4844 15.8555H7.28125C7.03261 15.8555 6.79415 15.7567 6.61834 15.5809C6.44252 15.4051 6.34375 15.1666 6.34375 14.918C6.34375 14.7267 6.55 14.1595 7.58125 13.5502C8.53562 12.9867 9.925 12.5742 11.5 12.5742C11.555 12.5742 11.6097 12.5748 11.6641 12.5761C12.0784 12.5836 12.4375 12.262 12.4375 11.8477ZM16.8906 10.6992C16.8906 10.5127 16.8165 10.3339 16.6847 10.202C16.5528 10.0702 16.374 9.99609 16.1875 9.99609C16.001 9.99609 15.8222 10.0702 15.6903 10.202C15.5585 10.3339 15.4844 10.5127 15.4844 10.6992V11.8711H14.3125C14.126 11.8711 13.9472 11.9452 13.8153 12.077C13.6835 12.2089 13.6094 12.3877 13.6094 12.5742C13.6094 12.7607 13.6835 12.9395 13.8153 13.0714C13.9472 13.2033 14.126 13.2773 14.3125 13.2773H15.4844V14.4492C15.4844 14.6357 15.5585 14.8145 15.6903 14.9464C15.8222 15.0783 16.001 15.1523 16.1875 15.1523C16.374 15.1523 16.5528 15.0783 16.6847 14.9464C16.8165 14.8145 16.8906 14.6357 16.8906 14.4492V13.2773H18.0625C18.249 13.2773 18.4278 13.2033 18.5597 13.0714C18.6915 12.9395 18.7656 12.7607 18.7656 12.5742C18.7656 12.3877 18.6915 12.2089 18.5597 12.077C18.4278 11.9452 18.249 11.8711 18.0625 11.8711H16.8906V10.6992Z" fill="white"/>
</svg>
