<svg width="22" height="22" viewBox="0 0 22 22" fill="none" xmlns="http://www.w3.org/2000/svg">
<circle cx="11" cy="11" r="11" fill="#2089A6"/>
<g clip-path="url(#clip0_1741_2996)">
<path d="M14.375 13.1387L16.52 14.4062L15.9575 15.3212L13.25 13.7012V9.95123H14.375V13.1387ZM19.25 12.9512C19.25 15.8537 16.9025 18.2012 14 18.2012C12.215 18.2012 10.6475 17.3087 9.695 15.9512H5V9.95123H2.75L10.25 3.20123L15.5 7.91873C17.6675 8.56373 19.25 10.5737 19.25 12.9512ZM8.9675 14.4512C8.8325 13.9787 8.75 13.4762 8.75 12.9512C8.75 10.3562 10.625 8.21123 13.1 7.78373L10.25 5.21873L6.5 8.59373V14.4512H8.9675ZM17.75 12.9512C17.75 10.8812 16.07 9.20123 14 9.20123C11.93 9.20123 10.25 10.8812 10.25 12.9512C10.25 15.0212 11.93 16.7012 14 16.7012C16.07 16.7012 17.75 15.0212 17.75 12.9512Z" fill="white"/>
</g>
<defs>
<clipPath id="clip0_1741_2996">
<rect width="18" height="18" fill="white" transform="translate(2 0.951233)"/>
</clipPath>
</defs>
</svg>
