<svg width="22" height="22" viewBox="0 0 22 22" fill="none" xmlns="http://www.w3.org/2000/svg">
<circle cx="11" cy="11" r="11" fill="#676363"/>
<path d="M8.33366 9.83323H7.00033C6.6467 9.83323 6.30756 9.97371 6.05752 10.2238C5.80747 10.4738 5.66699 10.8129 5.66699 11.1666V15.8332C5.66699 16.1869 5.80747 16.526 6.05752 16.776C6.30756 17.0261 6.6467 17.1666 7.00033 17.1666H15.0003C15.3539 17.1666 15.6931 17.0261 15.9431 16.776C16.1932 16.526 16.3337 16.1869 16.3337 15.8332V11.1666C16.3337 10.8129 16.1932 10.4738 15.9431 10.2238C15.6931 9.97371 15.3539 9.83323 15.0003 9.83323H13.667M8.33366 9.83323V7.83323C8.33366 7.12599 8.61461 6.44771 9.11471 5.94761C9.6148 5.44752 10.2931 5.16656 11.0003 5.16656C11.7076 5.16656 12.3858 5.44752 12.8859 5.94761C13.386 6.44771 13.667 7.12599 13.667 7.83323V9.83323M8.33366 9.83323H13.667M11.0003 12.4999V14.4999" stroke="white" stroke-width="2" stroke-linecap="round" stroke-linejoin="round"/>
</svg>
