<svg width="22" height="23" viewBox="0 0 22 23" fill="none" xmlns="http://www.w3.org/2000/svg">
<circle cx="11" cy="11.8334" r="11" fill="#6A1094"/>
<g clip-path="url(#clip0_1691_2818)">
<path fill-rule="evenodd" clip-rule="evenodd" d="M11.5 10.1036C11.9973 10.1036 12.4742 9.90609 12.8258 9.55446C13.1775 9.20283 13.375 8.72592 13.375 8.22864C13.375 7.73136 13.1775 7.25444 12.8258 6.90281C12.4742 6.55118 11.9973 6.35364 11.5 6.35364C11.0027 6.35364 10.5258 6.55118 10.1742 6.90281C9.82254 7.25444 9.625 7.73136 9.625 8.22864C9.625 8.72592 9.82254 9.20283 10.1742 9.55446C10.5258 9.90609 11.0027 10.1036 11.5 10.1036ZM11.5 11.5099C12.3702 11.5099 13.2048 11.1642 13.8202 10.5488C14.4355 9.93348 14.7812 9.09888 14.7812 8.22864C14.7812 7.3584 14.4355 6.5238 13.8202 5.90844C13.2048 5.29309 12.3702 4.94739 11.5 4.94739C10.6298 4.94739 9.79516 5.29309 9.17981 5.90844C8.56445 6.5238 8.21875 7.3584 8.21875 8.22864C8.21875 9.09888 8.56445 9.93348 9.17981 10.5488C9.79516 11.1642 10.6298 11.5099 11.5 11.5099ZM12.4375 12.6583C12.4401 12.4851 12.3751 12.3177 12.2562 12.1916C12.1373 12.0656 11.974 11.9909 11.8009 11.9833C11.7007 11.9803 11.6003 11.9787 11.5 11.9786C7.89062 11.9786 4.9375 13.8536 4.9375 15.7286C4.9375 16.3502 5.18443 16.9464 5.62397 17.3859C6.06351 17.8255 6.65965 18.0724 7.28125 18.0724H9.39062C9.57711 18.0724 9.75595 17.9983 9.88781 17.8664C10.0197 17.7346 10.0938 17.5557 10.0938 17.3693C10.0938 17.1828 10.0197 17.0039 9.88781 16.8721C9.75595 16.7402 9.57711 16.6661 9.39062 16.6661H7.28125C7.03261 16.6661 6.79415 16.5674 6.61834 16.3916C6.44252 16.2157 6.34375 15.9773 6.34375 15.7286C6.34375 15.5374 6.55 14.9702 7.58125 14.3608C8.53562 13.7974 9.925 13.3849 11.5 13.3849C11.555 13.3849 11.6097 13.3855 11.6641 13.3868C12.0784 13.3943 12.4375 13.0727 12.4375 12.6583ZM15.8031 12.9461C16.21 13.0418 16.5306 13.3624 16.6272 13.7693L13.9806 16.4149C13.7657 16.6302 13.4867 16.77 13.1856 16.8133L12.6887 16.8836L12.7591 16.3868C12.8024 16.0856 12.9422 15.8067 13.1575 15.5918L15.8031 12.9461ZM14.9753 17.4086L17.8516 14.5333C17.9864 14.3982 18.0623 14.2152 18.0625 14.0243C18.0623 13.3575 17.7973 12.7181 17.3258 12.2466C16.8543 11.7751 16.2149 11.5101 15.5481 11.5099C15.3574 11.5099 15.1743 11.5854 15.0391 11.7199L12.1628 14.5971C11.7327 15.0274 11.4537 15.5857 11.3678 16.188L11.2084 17.3036C11.188 17.4476 11.2012 17.5943 11.2472 17.7322C11.2932 17.8701 11.3706 17.9955 11.4734 18.0983C11.5761 18.2011 11.7014 18.2787 11.8393 18.3248C11.9772 18.3709 12.1239 18.3843 12.2678 18.3639L13.3844 18.2046C13.9867 18.1186 14.545 17.8397 14.9753 17.4096" fill="white"/>
</g>
<defs>
<clipPath id="clip0_1691_2818">
<rect width="15" height="15" fill="white" transform="translate(4 4.00989)"/>
</clipPath>
</defs>
</svg>
