<svg width="22" height="22" viewBox="0 0 22 22" fill="none" xmlns="http://www.w3.org/2000/svg">
<circle cx="11" cy="11" r="11" fill="#2089A6"/>
<path d="M14.0278 3.87296C14.212 3.87296 14.3886 3.95197 14.5188 4.09263C14.6491 4.23328 14.7222 4.42404 14.7222 4.62296V5.37296H16.1111C16.4795 5.37296 16.8327 5.53099 17.0932 5.8123C17.3537 6.0936 17.5 6.47513 17.5 6.87296V15.873C17.5 16.2708 17.3537 16.6523 17.0932 16.9336C16.8327 17.2149 16.4795 17.373 16.1111 17.373H6.38889C6.02053 17.373 5.66726 17.2149 5.4068 16.9336C5.14633 16.6523 5 16.2708 5 15.873V6.87296C5 6.47513 5.14633 6.0936 5.4068 5.8123C5.66726 5.53099 6.02053 5.37296 6.38889 5.37296H7.77778V4.62296C7.77778 4.42404 7.85094 4.23328 7.98118 4.09263C8.11141 3.95197 8.28804 3.87296 8.47222 3.87296C8.6564 3.87296 8.83303 3.95197 8.96327 4.09263C9.0935 4.23328 9.16667 4.42404 9.16667 4.62296V5.37296H13.3333V4.62296C13.3333 4.42404 13.4065 4.23328 13.5367 4.09263C13.667 3.95197 13.8436 3.87296 14.0278 3.87296ZM16.1111 6.87296H6.38889V15.873H16.1111V6.87296ZM13.2111 8.65721C13.3421 8.52059 13.5175 8.44499 13.6996 8.4467C13.8817 8.44841 14.0558 8.52728 14.1846 8.66634C14.3134 8.8054 14.3864 8.99351 14.388 9.19015C14.3896 9.3868 14.3196 9.57625 14.1931 9.71771L10.7611 13.425C10.696 13.4954 10.6186 13.5512 10.5335 13.5893C10.4483 13.6274 10.3571 13.6471 10.2649 13.6471C10.1728 13.6471 10.0815 13.6274 9.99637 13.5893C9.91124 13.5512 9.83389 13.4954 9.76875 13.425L8.30069 11.838C8.1742 11.6965 8.1042 11.5071 8.10578 11.3104C8.10736 11.1138 8.1804 10.9256 8.30915 10.7866C8.43791 10.6475 8.61208 10.5687 8.79417 10.567C8.97625 10.5652 9.15166 10.6408 9.28264 10.7775L10.2653 11.838L13.2111 8.65721Z" fill="white"/>
</svg>
