<svg width="22" height="23" viewBox="0 0 22 23" fill="none" xmlns="http://www.w3.org/2000/svg">
<circle cx="11" cy="11.0488" r="11" fill="#0C48B7"/>
<path d="M12.0625 7.95741L14.7137 10.6087L8.52625 16.7962H5.875V14.1443L12.0625 7.95741ZM12.9462 7.07304L14.2719 5.74741C14.3891 5.63024 14.548 5.56442 14.7137 5.56442C14.8795 5.56442 15.0384 5.63024 15.1556 5.74741L16.9237 7.51491C16.9819 7.57296 17.028 7.64189 17.0594 7.71776C17.0909 7.79364 17.1071 7.87497 17.1071 7.9571C17.1071 8.03924 17.0909 8.12057 17.0594 8.19644C17.028 8.27231 16.9819 8.34124 16.9237 8.39929L15.5975 9.72491L12.9462 7.07304Z" fill="white"/>
</svg>
