<svg width="43" height="43" viewBox="0 0 43 43" fill="none" xmlns="http://www.w3.org/2000/svg">
<path d="M2 12.8635C2 8.15615 2 5.80445 3.27725 4.2035C3.55025 3.8603 3.859 3.55155 4.2035 3.27725C5.8025 2 8.15615 2 12.8615 2H30.1346C34.8419 2 37.1936 2 38.7965 3.27725C39.1384 3.55025 39.4471 3.859 39.7227 4.2035C41 5.8025 41 8.15615 41 12.8615C41 19.1405 41 22.2781 39.2977 24.4114C38.9337 24.869 38.5222 25.2804 38.0633 25.6457C35.93 27.35 32.7905 27.35 26.5135 27.35H16.4885C10.2095 27.35 7.07195 27.35 4.93865 25.6477C4.48231 25.2837 4.06827 24.8696 3.7043 24.4133C2 22.28 2 19.1405 2 12.8635Z" stroke="black" stroke-width="3"/>
<path d="M11.75 32.225L11.1514 33.122C10.7855 33.6699 10.6437 34.3373 10.755 34.9866C10.8664 35.636 11.2225 36.2179 11.75 36.6125C12.842 37.4315 13.1053 38.9643 12.3467 40.1031L11.75 41M21.5 32.225L20.9014 33.122C20.5355 33.6699 20.3937 34.3373 20.505 34.9866C20.6164 35.636 20.9725 36.2179 21.5 36.6125C22.592 37.4315 22.8553 38.9643 22.0967 40.1031L21.5 41M31.25 32.225L30.6514 33.122C30.2855 33.6699 30.1437 34.3373 30.255 34.9866C30.3664 35.636 30.7225 36.2179 31.25 36.6125C32.342 37.4315 32.6053 38.9643 31.8467 40.1031L31.25 41M33.2 26.375C33.2 25.4683 33.2 25.0159 33.124 24.6395C32.9738 23.8829 32.6025 23.1878 32.0573 22.6422C31.512 22.0965 30.8171 21.7248 30.0605 21.5741C29.6842 21.5 29.2298 21.5 28.325 21.5H15.65C13.8326 21.5 12.9239 21.5 12.2063 21.7964C11.7332 21.9927 11.3034 22.2802 10.9413 22.6425C10.5793 23.0049 10.2922 23.435 10.0964 23.9083C9.85855 24.4835 9.81175 25.1816 9.802 26.375M9.80005 14.675H33.2M9.80005 9.80005H33.2" stroke="black" stroke-width="3" stroke-linecap="round"/>
</svg>
