<svg width="46" height="38" viewBox="0 0 46 38" fill="none" xmlns="http://www.w3.org/2000/svg">
<path fill-rule="evenodd" clip-rule="evenodd" d="M20.7407 0H25.2593C29.1918 0 32.307 2.58854e-07 34.7439 0.332229C37.2514 0.675315 39.2819 1.39623 40.8844 3.02046C42.4847 4.64686 43.1951 6.70754 43.5331 9.25246C43.8562 11.6975 43.8605 14.8113 43.8605 18.7373C44.5965 19.3518 45.1806 20.1487 45.5507 21.0585C45.8096 21.6882 45.9101 22.3397 45.9572 23.028C46 23.6881 46 24.4937 46 25.46V25.5686C46 26.5349 46 27.3405 45.9572 28.0006C45.9304 28.6754 45.793 29.341 45.5507 29.9701C45.2553 30.6948 44.822 31.3533 44.2758 31.9081C43.7295 32.4629 43.0809 32.903 42.3671 33.2033C41.7466 33.4639 41.1047 33.5659 40.4265 33.6115C40.1451 33.6309 39.8634 33.6432 39.5814 33.6485V36.3714C39.5814 36.8034 39.4123 37.2176 39.1114 37.523C38.8105 37.8284 38.4023 38 37.9767 38C37.5512 38 37.143 37.8284 36.8421 37.523C36.5412 37.2176 36.3721 36.8034 36.3721 36.3714V33.6571H9.62791V36.3714C9.62791 36.8034 9.45885 37.2176 9.15792 37.523C8.85699 37.8284 8.44884 38 8.02326 38C7.59768 38 7.18953 37.8284 6.8886 37.523C6.58767 37.2176 6.4186 36.8034 6.4186 36.3714V33.6463C6.13666 33.6418 5.85487 33.6302 5.57349 33.6115C4.90879 33.5858 4.25297 33.4478 3.63293 33.2033C2.91866 32.9032 2.26967 32.4632 1.72304 31.9084C1.17641 31.3536 0.742856 30.695 0.447163 29.9701C0.190419 29.3403 0.0898605 28.6889 0.0449303 28.0006C5.97779e-08 27.3405 0 26.5349 0 25.5686V25.46C0 24.4937 -3.98519e-08 23.6881 0.0427907 23.028C0.0898604 22.3375 0.192558 21.6882 0.449302 21.0585C0.81691 20.1553 1.39729 19.3575 2.13953 18.7351C2.13953 14.8135 2.14381 11.6975 2.46688 9.25246C2.80493 6.70754 3.51526 4.64686 5.11563 3.02046C6.71814 1.39623 8.74856 0.675315 11.2561 0.332229C13.6952 2.58854e-07 16.8082 0 20.7407 0ZM5.34884 17.4344L5.57349 17.417C6.11051 17.3801 6.74809 17.3736 7.48837 17.3736V15.6299C7.48837 13.68 7.48837 12.0514 7.65953 10.7616C7.83926 9.39794 8.23721 8.16674 9.2107 7.17874C10.1863 6.18857 11.3994 5.78469 12.7409 5.60229C14.014 5.42857 15.6186 5.42857 17.5399 5.42857H28.4601C30.3835 5.42857 31.986 5.42857 33.2569 5.60229C34.6006 5.78469 35.8137 6.18857 36.7872 7.17657C37.7628 8.16674 38.1607 9.39794 38.3405 10.7594C38.5116 12.0514 38.5116 13.68 38.5116 15.6299V17.3714C39.2253 17.3665 39.939 17.3875 40.6512 17.4344C40.6447 14.1013 40.6084 11.6258 40.3516 9.68674C40.0628 7.50229 39.5194 6.24286 38.6143 5.32217C37.7093 4.40583 36.4684 3.85429 34.316 3.56114C32.1187 3.26149 29.2196 3.25714 25.1395 3.25714H20.8605C16.7804 3.25714 13.8834 3.26149 11.6819 3.56114C9.53163 3.85429 8.2907 4.40583 7.38567 5.32434C6.48065 6.24286 5.93721 7.50229 5.64837 9.68457C5.39163 11.6237 5.35526 14.0991 5.34884 17.4322M35.3023 17.3693V15.7407C35.3023 13.6474 35.298 12.2403 35.159 11.1915C35.0263 10.1905 34.7974 9.76057 34.5171 9.47829C34.2368 9.196 33.8175 8.96366 32.8312 8.82686C31.7978 8.68789 30.4114 8.68354 28.3488 8.68354H24.6047V17.3693H35.3023ZM21.3953 17.3693V8.68354H17.6512C15.5887 8.68354 14.2022 8.68789 13.1688 8.82903C12.1825 8.96366 11.7589 9.196 11.4807 9.48046C11.2026 9.76492 10.9737 10.1905 10.8389 11.1915C10.702 12.2403 10.6977 13.6474 10.6977 15.7407V17.3693H21.3953ZM5.79172 20.6633C5.27609 20.7002 5.02577 20.7632 4.86102 20.8327C4.53625 20.9691 4.24115 21.1691 3.99262 21.4214C3.74408 21.6736 3.54697 21.9731 3.41256 22.3027C3.34409 22.4699 3.28205 22.724 3.24567 23.2473C3.2093 23.7837 3.2093 24.4785 3.2093 25.5121C3.2093 26.5457 3.2093 27.2406 3.24567 27.7769C3.28205 28.3002 3.34409 28.5543 3.41256 28.7215C3.68428 29.3881 4.20419 29.9158 4.86102 30.1915C5.02577 30.261 5.27609 30.324 5.79172 30.3609C6.32019 30.3978 7.00484 30.3978 8.02326 30.3978H37.9767C38.9952 30.3978 39.6798 30.3978 40.2083 30.3609C40.7239 30.324 40.9742 30.261 41.139 30.1915C41.7958 29.9158 42.3157 29.3881 42.5874 28.7215C42.6559 28.5543 42.718 28.3002 42.7543 27.7769C42.7907 27.2406 42.7907 26.5457 42.7907 25.5121C42.7907 24.4785 42.7907 23.7837 42.7543 23.2473C42.718 22.724 42.6559 22.4699 42.5874 22.3027C42.453 21.9731 42.2559 21.6736 42.0074 21.4214C41.7588 21.1691 41.4638 20.9691 41.139 20.8327C40.9742 20.7632 40.7239 20.7002 40.2083 20.6633C39.465 20.6286 38.7208 20.617 37.9767 20.6286H8.02326C7.00484 20.6286 6.32019 20.6286 5.79172 20.6655" fill="black"/>
</svg>
