<svg width="51" height="45" viewBox="0 0 51 45" fill="none" xmlns="http://www.w3.org/2000/svg">
<path d="M37.7687 21.3074H46.5763C46.9895 21.3076 47.3958 21.4128 47.7566 21.6129C48.1174 21.813 48.4208 22.1014 48.638 22.4508C48.8552 22.8002 48.979 23.199 48.9975 23.6092C49.0161 24.0195 48.9289 24.4277 48.7442 24.7951L43.8118 34.6026C43.6248 34.9742 43.3443 35.2915 42.9975 35.5235C42.6507 35.7556 42.2494 35.8947 41.8327 35.9272C41.4159 35.9597 40.9977 35.8845 40.6188 35.709C40.2398 35.5335 39.913 35.2636 39.6699 34.9255L34.5192 27.767M2 38.1794H11.118C12.0219 38.1857 12.9095 37.9407 13.6808 37.4723C14.452 37.0038 15.0763 36.3304 15.483 35.5281L18.975 28.5383M2 43V33.3588M14.125 14.0765H14.1492M38.632 14.2043C39.2068 14.4903 39.6438 14.9913 39.847 15.5974C40.0503 16.2035 40.0032 16.8649 39.716 17.4365L32.1839 32.4068C32.0415 32.69 31.8443 32.9425 31.6036 33.1499C31.363 33.3573 31.0835 33.5155 30.7813 33.6156C30.4791 33.7156 30.16 33.7555 29.8423 33.733C29.5246 33.7104 29.2144 33.6259 28.9296 33.4842L5.90425 22.0305C4.23181 21.1932 2.96116 19.7315 2.37034 17.9653C1.77953 16.1991 1.91667 14.2722 2.75175 12.6063L6.09825 5.88156C6.51535 5.05537 7.09211 4.31893 7.79559 3.71431C8.49907 3.1097 9.3155 2.64874 10.1982 2.35777C11.081 2.0668 12.0127 1.95152 12.9403 2.01851C13.8679 2.08549 14.7731 2.33344 15.6042 2.74819L38.632 14.2043Z" stroke="black" stroke-width="3" stroke-linecap="round" stroke-linejoin="round"/>
</svg>
