<svg width="45" height="45" viewBox="0 0 45 45" fill="none" xmlns="http://www.w3.org/2000/svg">
<path fill-rule="evenodd" clip-rule="evenodd" d="M22.4163 0H22.5837C24.6328 0 26.2905 -3.11885e-08 27.6279 0.13814C29.0135 0.280465 30.217 0.583954 31.297 1.29767C31.9207 1.70791 32.4837 2.20605 32.9672 2.77744C33.8023 3.76535 34.246 4.92279 34.5537 6.28326C34.8509 7.59349 35.0477 9.2407 35.2926 11.273L35.5061 13.0584C35.7572 15.1451 35.9644 16.874 35.9372 18.2533C35.9079 19.7016 35.6212 21.0349 34.6458 22.1337C33.6705 23.2326 32.3812 23.6784 30.9453 23.8793C29.5807 24.0698 27.8393 24.0698 25.7379 24.0698H24.0698V26.1628H32.9651C33.637 26.1628 34.267 26.3428 34.807 26.6588L35.393 24.907C35.5139 24.5202 35.6572 24.1407 35.8221 23.7705C36.0021 23.3833 36.0942 23.2305 36.2365 22.994C36.833 22.0123 37.6116 21.1605 38.8695 20.6079C40.0542 20.0847 41.536 19.8837 43.4302 19.8837C43.8466 19.8837 44.2458 20.0491 44.5402 20.3435C44.8346 20.6379 45 21.0372 45 21.4535C45 21.8698 44.8346 22.2691 44.5402 22.5635C44.2458 22.8579 43.8466 23.0233 43.4302 23.0233C41.6993 23.0233 40.7302 23.2158 40.1358 23.4795C39.6147 23.7098 39.2777 24.0342 38.9198 24.6244C38.857 24.7291 38.8298 24.773 38.8026 24.8253C38.7555 24.9124 38.7115 25.001 38.6707 25.0912C38.566 25.3214 38.5137 25.4679 38.3567 25.9367L36.5484 31.3681C36.4799 31.5643 36.3756 31.746 36.2407 31.904C35.8213 32.987 35.0841 33.9178 34.126 34.5742C33.1678 35.2305 32.0335 35.5816 30.8721 35.5814H24.0698V38.0219C25.2642 38.3578 26.3582 38.9812 27.2561 39.8375C28.154 40.6938 28.8285 41.757 29.2207 42.9342C29.3344 43.324 29.2926 43.7426 29.1042 44.1023C28.9158 44.4619 28.5953 44.7345 28.2101 44.8629C27.8249 44.9913 27.405 44.9655 27.0385 44.7908C26.6719 44.6162 26.3873 44.3063 26.2444 43.9263C25.8777 42.8276 25.0977 41.9148 24.0698 41.3812V43.4302C24.0698 43.8466 23.9044 44.2458 23.61 44.5402C23.3156 44.8346 22.9163 45 22.5 45C22.0837 45 21.6844 44.8346 21.39 44.5402C21.0956 44.2458 20.9302 43.8466 20.9302 43.4302V41.3791C19.9018 41.9132 19.1219 42.8268 18.7556 43.9263C18.62 44.3161 18.3363 44.6368 17.966 44.819C17.5956 45.0012 17.1685 45.0303 16.7769 44.8998C16.3853 44.7694 16.0609 44.49 15.8738 44.1221C15.6867 43.7542 15.652 43.3275 15.7772 42.9342C16.1696 41.7568 16.8444 40.6934 17.7427 39.8371C18.641 38.9808 19.7354 38.3575 20.9302 38.0219V35.5814H14.1279C12.9665 35.5816 11.8322 35.2305 10.874 34.5742C9.91587 33.9178 9.17867 32.987 8.7593 31.904C8.62439 31.746 8.52006 31.5643 8.45163 31.3681L6.64116 25.9367C6.55692 25.6477 6.452 25.3651 6.32721 25.0912C6.25479 24.9305 6.1723 24.7746 6.08023 24.6244C5.72233 24.0342 5.38535 23.7098 4.86419 23.4795C4.26767 23.2158 3.3007 23.0233 1.56977 23.0233C1.15344 23.0233 0.754163 22.8579 0.459774 22.5635C0.165386 22.2691 0 21.8698 0 21.4535C0 21.0372 0.165386 20.6379 0.459774 20.3435C0.754163 20.0491 1.15344 19.8837 1.56977 19.8837C3.46395 19.8837 4.94581 20.0826 6.13256 20.6058C7.38837 21.1605 8.16698 22.0123 8.76349 22.9919C8.90581 23.2305 8.99791 23.3833 9.17791 23.7705C9.36209 24.1723 9.46465 24.4758 9.60907 24.907L10.193 26.6588C10.733 26.3449 11.363 26.1628 12.0349 26.1628H20.9302V24.0698H19.2621C17.1607 24.0698 15.4193 24.0698 14.0547 23.8793C12.6188 23.6784 11.3295 23.2326 10.3542 22.1337C9.37884 21.0349 9.09209 19.7016 9.06279 18.2533C9.03558 16.874 9.24279 15.1451 9.49395 13.0584L9.70744 11.273C9.95233 9.2407 10.1491 7.59349 10.4463 6.28326C10.754 4.92279 11.1977 3.76535 12.0328 2.77744C12.5163 2.20605 13.0793 1.71 13.703 1.29767C14.783 0.586047 15.9844 0.280465 17.3721 0.13814C18.7095 -3.11885e-08 20.3672 0 22.4163 0ZM30.8721 32.4419C32.3163 32.4419 33.4884 31.2698 33.4884 29.8256C33.4884 29.6868 33.4332 29.5537 33.3351 29.4556C33.237 29.3575 33.1039 29.3023 32.9651 29.3023H12.0349C11.8961 29.3023 11.763 29.3575 11.6649 29.4556C11.5668 29.5537 11.5116 29.6868 11.5116 29.8256C11.5116 31.2698 12.6837 32.4419 14.1279 32.4419H30.8721ZM17.6944 3.26093C16.5663 3.37814 15.9237 3.59163 15.4319 3.91814C15.058 4.16581 14.7205 4.46451 14.4293 4.80558C14.0484 5.25767 13.7595 5.86884 13.5084 6.97395C13.2509 8.11047 13.0709 9.59442 12.8156 11.7314L12.6251 13.3179C12.3572 15.5491 12.1793 17.0581 12.2023 18.1884C12.2233 19.2767 12.4305 19.7393 12.7047 20.0491C12.9767 20.3567 13.4121 20.6163 14.49 20.767C15.6119 20.924 17.1314 20.9281 19.3793 20.9281H25.6207C27.8686 20.9281 29.3881 20.924 30.51 20.767C31.5879 20.6163 32.0233 20.3567 32.2974 20.0491C32.5695 19.7393 32.7767 19.2747 32.7998 18.1884C32.8207 17.056 32.6428 15.547 32.3749 13.3158L32.1865 11.7293C31.9291 9.59233 31.747 8.10837 31.4916 6.97186C31.2405 5.86674 30.9516 5.25558 30.5707 4.80349C30.2795 4.46242 29.942 4.16372 29.5681 3.91605C29.0763 3.58953 28.4337 3.37605 27.3056 3.25884C26.1481 3.13953 24.6537 3.13744 22.5 3.13744C20.3463 3.13744 18.8519 3.13744 17.6944 3.25884" fill="black"/>
</svg>
