<svg width="50" height="41" viewBox="0 0 50 41" fill="none" xmlns="http://www.w3.org/2000/svg">
<path fill-rule="evenodd" clip-rule="evenodd" d="M22.0922 0H27.9074C30.4361 0 32.5 -2.08616e-07 34.1316 0.210857C35.8283 0.428743 37.3157 0.904343 38.5127 2.05234C39.7213 3.2144 40.2326 4.67634 40.465 6.3468C40.6882 7.92823 40.6882 9.92434 40.6882 12.3375V14.8139C41.6179 14.3219 42.68 14.0571 43.7631 14.0571C47.7328 14.0571 51.1308 17.705 49.6433 21.7347L47.0402 28.7633L46.9868 28.9085C46.5847 29.9933 46.3104 30.7359 45.9362 31.3896C44.7788 33.3998 42.8938 34.8969 40.6882 35.6841V39.2429C40.6882 39.7089 40.5045 40.1558 40.1776 40.4853C39.8507 40.8149 39.4073 41 38.945 41C38.4827 41 38.0393 40.8149 37.7124 40.4853C37.3855 40.1558 37.2019 39.7089 37.2019 39.2429V36.3049C36.7649 36.3143 36.2722 36.3143 35.6795 36.3143H12.7977V39.2429C12.7977 39.7089 12.6141 40.1558 12.2872 40.4853C11.9603 40.8149 11.5169 41 11.0546 41C10.5923 41 10.1489 40.8149 9.82199 40.4853C9.49508 40.1558 9.31143 39.7089 9.31143 39.2429V36.1198C9.31143 35.9746 9.3277 35.8348 9.36024 35.7005C6.71065 34.768 4.51195 32.8164 3.48698 30.1854L3.39401 29.9323L0.358599 21.7323C-1.13354 17.705 2.26445 14.0571 6.23651 14.0571C7.31959 14.0571 8.37942 14.3219 9.31143 14.8139V12.3375C9.31143 9.92434 9.31143 7.92823 9.53223 6.3468C9.76465 4.67634 10.276 3.2144 11.4846 2.05234C12.6838 0.904343 14.1713 0.428743 15.868 0.210857C17.4996 -2.08616e-07 19.5635 0 22.0922 0ZM9.31143 20.3313V20.5H9.38116L11.38 25.4715L11.4265 25.5863C11.6124 26.0455 11.803 26.5235 12.0981 26.9382C12.7675 27.8753 13.7809 28.4938 14.8849 28.7187C15.366 28.8195 15.8773 28.8171 16.4328 28.8171H33.0253C34.0944 28.8195 35.0961 28.8218 35.9793 28.454C36.4604 28.2549 36.9067 27.9761 37.2948 27.6223C38.0293 26.9522 38.4012 26.0221 38.7591 25.1248L38.8451 24.9093L40.6208 20.5H40.6905V20.3313L41.1716 19.1318C41.5133 18.2837 42.4964 17.5714 43.7631 17.5714C45.9014 17.5714 46.8171 19.3122 46.3755 20.5047L43.7724 27.5333C43.2982 28.8218 43.1263 29.267 42.9194 29.6278C41.9967 31.2326 40.2257 32.4228 38.0874 32.725C37.5947 32.7953 37.0229 32.8 35.5354 32.8H12.8582C9.98312 32.7578 7.59384 31.1131 6.73156 28.8991L6.65254 28.6883L3.6241 20.5047C3.18251 19.3122 4.09824 17.5714 6.23651 17.5714C7.50552 17.5714 8.48634 18.2837 8.828 19.1318L9.31143 20.3313ZM37.2019 19.6472V12.464C37.2019 9.88686 37.1972 8.14143 37.0159 6.83411C36.8393 5.58771 36.5325 5.002 36.1095 4.59669C35.6725 4.17497 35.0287 3.86571 33.6877 3.69469C32.3048 3.51429 30.4663 3.51194 27.7888 3.51194H22.2108C19.5333 3.51194 17.6948 3.51429 16.3119 3.69469C14.9709 3.86571 14.3271 4.17731 13.8901 4.59669C13.4671 5.002 13.1603 5.58771 12.9837 6.83411C12.8024 8.14143 12.7977 9.8892 12.7977 12.464V19.6449L14.6106 24.1478C14.7338 24.4524 14.8035 24.6234 14.8616 24.7546L14.9267 24.8835C15.0429 25.0475 15.2637 25.2115 15.5775 25.2747C15.6704 25.2911 15.7983 25.3005 16.5583 25.3005H32.7789C34.2594 25.3005 34.4942 25.2677 34.6522 25.2021C34.7628 25.1551 34.8655 25.0911 34.9567 25.0123C34.9613 25.01 35.0078 24.9725 35.1171 24.7546C35.2978 24.3716 35.4637 23.9816 35.6144 23.5855L37.2019 19.6472Z" fill="black"/>
</svg>
