<svg width="45" height="45" viewBox="0 0 45 45" fill="none" xmlns="http://www.w3.org/2000/svg">
<path d="M33.2812 13.125C33.2812 12.752 33.1331 12.3944 32.8694 12.1306C32.6056 11.8669 32.248 11.7188 31.875 11.7188C31.502 11.7188 31.1444 11.8669 30.8806 12.1306C30.6169 12.3944 30.4688 12.752 30.4688 13.125V16.875C30.4688 17.248 30.6169 17.6056 30.8806 17.8694C31.1444 18.1331 31.502 18.2812 31.875 18.2812C32.248 18.2812 32.6056 18.1331 32.8694 17.8694C33.1331 17.6056 33.2812 17.248 33.2812 16.875V13.125ZM33.2812 26.25C33.2812 25.877 33.1331 25.5194 32.8694 25.2556C32.6056 24.9919 32.248 24.8438 31.875 24.8438C31.502 24.8438 31.1444 24.9919 30.8806 25.2556C30.6169 25.5194 30.4688 25.877 30.4688 26.25V30C30.4688 30.373 30.6169 30.7306 30.8806 30.9944C31.1444 31.2581 31.502 31.4062 31.875 31.4062C32.248 31.4062 32.6056 31.2581 32.8694 30.9944C33.1331 30.7306 33.2812 30.373 33.2812 30V26.25Z" fill="black"/>
<path fill-rule="evenodd" clip-rule="evenodd" d="M22.605 2.34375H22.395C18.9488 2.34375 16.2188 2.34375 14.0831 2.63063C11.8856 2.92687 10.1062 3.54938 8.70187 4.95187C7.29937 6.35625 6.67688 8.13563 6.38063 10.3331C6.09375 12.4706 6.09375 15.1988 6.09375 18.645V24.48C6.09375 27.9263 6.09375 30.6562 6.38063 32.7919C6.67688 34.9894 7.29937 36.7687 8.70187 38.1731C9.56437 39.0337 10.5656 39.6 11.7188 39.9788V41.25C11.7188 42.0262 12.3488 42.6562 13.125 42.6562H15C15.373 42.6562 15.7306 42.5081 15.9944 42.2444C16.2581 41.9806 16.4062 41.623 16.4062 41.25V40.695C18.1069 40.7812 20.0906 40.7812 22.395 40.7812H22.605C24.9112 40.7812 26.8931 40.7812 28.5938 40.695V41.25C28.5938 42.0262 29.2237 42.6562 30 42.6562H31.875C32.248 42.6562 32.6056 42.5081 32.8694 42.2444C33.1331 41.9806 33.2812 41.623 33.2812 41.25V39.9788C34.4344 39.6 35.4375 39.0337 36.2981 38.1731C37.7006 36.7687 38.3231 34.9894 38.6194 32.7919C38.9062 30.6544 38.9062 27.9263 38.9062 24.48V18.6469C38.9062 15.2006 38.9062 12.4706 38.6194 10.335C38.3231 8.1375 37.7006 6.35812 36.2981 4.95375C34.8937 3.55125 33.1144 2.92875 30.9169 2.6325C28.7794 2.34563 26.0513 2.34563 22.605 2.34563M10.6913 6.94125C11.4844 6.14812 12.5719 5.67188 14.4581 5.41875C16.3856 5.16 18.9244 5.15625 22.5 5.15625C26.0756 5.15625 28.6163 5.16 30.5438 5.41875C32.4281 5.67188 33.5156 6.14812 34.3088 6.94125C35.1019 7.73438 35.5781 8.82187 35.8313 10.7081C36.09 12.6356 36.0938 15.1744 36.0938 18.75V20.1562H8.90625V18.75C8.90625 15.1744 8.91 12.6356 9.16875 10.7063C9.42187 8.82188 9.89813 7.73438 10.6913 6.94125ZM8.90625 22.9688H36.0938V24.375C36.0938 27.9506 36.09 30.4913 35.8313 32.4188C35.5781 34.3031 35.1019 35.3906 34.3088 36.1838C33.5156 36.9769 32.4281 37.4531 30.5419 37.7063C28.6144 37.965 26.0756 37.9688 22.5 37.9688C18.9244 37.9688 16.3856 37.965 14.4563 37.7063C12.5719 37.4531 11.4844 36.9769 10.6913 36.1838C9.89813 35.3906 9.42187 34.3031 9.16875 32.4169C8.91 30.4912 8.90625 27.9506 8.90625 24.375V22.9688Z" fill="black"/>
</svg>
