<svg width="87" height="87" viewBox="0 0 87 87" fill="none" xmlns="http://www.w3.org/2000/svg">
<path d="M47.3443 8.15624C46.3246 7.13686 44.9418 6.56421 43.5 6.56421C42.0582 6.56421 40.6754 7.13686 39.6557 8.15624L3.51264 44.2939C3.25986 44.5466 3.05935 44.8467 2.92255 45.177C2.78574 45.5073 2.71533 45.8613 2.71533 46.2187C2.71533 46.5762 2.78574 46.9302 2.92255 47.2605C3.05935 47.5907 3.25986 47.8908 3.51264 48.1436C4.02315 48.6541 4.71555 48.9409 5.43752 48.9409C5.795 48.9409 6.14898 48.8705 6.47925 48.7337C6.80952 48.5969 7.10961 48.3964 7.36239 48.1436L10.875 44.6255V73.4062C10.875 75.5694 11.7343 77.644 13.2639 79.1736C14.7935 80.7032 16.8681 81.5625 19.0313 81.5625H67.9688C70.1319 81.5625 72.2065 80.7032 73.7361 79.1736C75.2657 77.644 76.125 75.5694 76.125 73.4062V44.6255L79.6376 48.1436C80.1481 48.6541 80.8405 48.9409 81.5625 48.9409C82.2845 48.9409 82.9769 48.6541 83.4874 48.1436C83.9979 47.6331 84.2847 46.9407 84.2847 46.2187C84.2847 45.4968 83.9979 44.8044 83.4874 44.2939L70.6875 31.4994V13.5937C70.6875 12.8727 70.4011 12.1812 69.8912 11.6713C69.3813 11.1614 68.6898 10.875 67.9688 10.875H62.5313C61.8102 10.875 61.1187 11.1614 60.6088 11.6713C60.099 12.1812 59.8125 12.8727 59.8125 13.5937V20.6244L47.3443 8.15624ZM70.6875 39.188V73.4062C70.6875 74.1273 70.4011 74.8188 69.8912 75.3287C69.3813 75.8385 68.6898 76.125 67.9688 76.125H19.0313C18.3102 76.125 17.6187 75.8385 17.1088 75.3287C16.599 74.8188 16.3125 74.1273 16.3125 73.4062V39.188L43.5 12.0005L70.6875 39.188Z" fill="black"/>
</svg>
