<svg width="83" height="83" viewBox="0 0 83 83" fill="none" xmlns="http://www.w3.org/2000/svg">
<path d="M27.6667 34.5833H20.75C18.9156 34.5833 17.1563 35.3121 15.8592 36.6092C14.5621 37.9063 13.8334 39.6656 13.8334 41.5V65.7083C13.8334 67.5427 14.5621 69.302 15.8592 70.5992C17.1563 71.8963 18.9156 72.625 20.75 72.625H62.25C64.0845 72.625 65.8437 71.8963 67.1409 70.5992C68.438 69.302 69.1667 67.5427 69.1667 65.7083V41.5C69.1667 39.6656 68.438 37.9063 67.1409 36.6092C65.8437 35.3121 64.0845 34.5833 62.25 34.5833H55.3334M27.6667 34.5833V24.2083C27.6667 20.5395 29.1241 17.0209 31.7184 14.4267C34.3126 11.8324 37.8312 10.375 41.5 10.375C45.1689 10.375 48.6874 11.8324 51.2817 14.4267C53.8759 17.0209 55.3334 20.5395 55.3334 24.2083V34.5833M27.6667 34.5833H55.3334M41.5 48.4167V58.7917" stroke="white" stroke-width="5" stroke-linecap="round" stroke-linejoin="round"/>
</svg>
