<svg width="47" height="49" viewBox="0 0 47 49" fill="none" xmlns="http://www.w3.org/2000/svg">
<path d="M23.4952 2C16.6877 2 12.2746 6.56928 7.05579 8.23495C4.93296 8.9139 3.87155 9.2511 3.44155 9.72863C3.01156 10.2039 2.88708 10.9032 2.63588 12.2973C-0.0572619 27.225 5.8269 41.0256 19.8584 46.3983C21.3634 46.9754 22.117 47.2628 23.502 47.2628C24.8871 47.2628 25.643 46.9731 27.1502 46.396C41.1794 41.0256 47.0568 27.225 44.3637 12.2973C44.1125 10.9032 43.9857 10.2039 43.5557 9.72636C43.1257 9.24884 42.0666 8.91163 39.9438 8.23495C34.7227 6.56928 30.3028 2 23.4952 2Z" stroke="black" stroke-width="3" stroke-linecap="round" stroke-linejoin="round"/>
<path d="M19.5393 20.0124C19.5393 19.8766 19.5574 19.0935 19.5619 18.1113C19.5619 17.2106 19.485 16.3461 19.915 15.554C21.5218 12.3539 26.1386 12.6798 27.2792 15.9387C27.4761 16.4751 27.4897 17.3237 27.4829 18.1113C27.4761 19.1139 27.4965 20.0124 27.4965 20.0124M19.7362 20.9651C17.292 20.9651 16.0699 22.7304 15.7983 23.8167C15.5267 24.903 15.5267 28.8409 15.6897 30.4703C16.2328 32.5072 17.5907 33.349 18.9215 33.6206C20.1436 33.7293 25.3035 33.6885 26.7972 33.6885C28.9698 33.7293 30.5993 32.9145 31.2782 30.4703C31.414 29.6556 31.5498 25.1746 31.2103 23.8167C30.4906 21.6441 28.6982 20.9651 27.3403 20.9651H19.7362Z" stroke="black" stroke-width="3" stroke-linecap="round" stroke-linejoin="round"/>
</svg>
