<svg width="38" height="45" viewBox="0 0 38 45" fill="none" xmlns="http://www.w3.org/2000/svg">
<path d="M0.431412 3.88413C0.523424 2.82049 1.00944 1.83059 1.79293 1.11103C2.57642 0.391475 3.60007 -0.00510614 4.66059 4.96469e-05C5.66647 4.96469e-05 6.59635 0.351102 7.32729 0.938439C8.10971 0.33022 9.0703 0.000218015 10.0588 4.96469e-05C11.0871 4.96469e-05 12.0348 0.348852 12.7904 0.938439C13.5469 0.328473 14.4878 -0.00265028 15.4571 4.96469e-05C17.6387 4.96469e-05 19.4962 1.65855 19.6862 3.88413C19.874 6.0782 20.1176 9.47171 20.1176 12.3769C20.1179 14.1219 19.6702 15.8374 18.8179 17.3569C17.9657 18.8764 16.7379 20.1485 15.2536 21.0497C14.7574 21.3512 14.6278 21.7248 14.6412 21.9183C14.9251 26.2705 15.6471 37.5626 15.6471 39.3742C15.6471 40.8662 15.0583 42.2972 14.0103 43.3522C12.9623 44.4073 11.5409 45 10.0588 45C8.57673 45 7.15534 44.4073 6.10734 43.3522C5.05935 42.2972 4.47059 40.8662 4.47059 39.3742C4.47059 37.5626 5.19259 26.2705 5.47647 21.9183C5.48765 21.7225 5.36024 21.3512 4.864 21.0497C3.3797 20.1485 2.15191 18.8764 1.2997 17.3569C0.447492 15.8374 -0.000214413 14.1219 7.70328e-08 12.3769C7.70328e-08 9.47396 0.243647 6.0782 0.431412 3.88413ZM14.5294 11.8143C14.5294 12.2619 14.3528 12.6912 14.0384 13.0077C13.724 13.3242 13.2976 13.5021 12.8529 13.5021C12.4083 13.5021 11.9819 13.3242 11.6675 13.0077C11.3531 12.6912 11.1765 12.2619 11.1765 11.8143V4.50072C11.1765 4.20231 11.0587 3.91612 10.8491 3.70511C10.6395 3.4941 10.3552 3.37555 10.0588 3.37555C9.76241 3.37555 9.47813 3.4941 9.26853 3.70511C9.05893 3.91612 8.94118 4.20231 8.94118 4.50072V11.8143C8.94118 12.2619 8.76455 12.6912 8.45015 13.0077C8.13575 13.3242 7.70933 13.5021 7.26471 13.5021C6.82008 13.5021 6.39366 13.3242 6.07926 13.0077C5.76486 12.6912 5.58824 12.2619 5.58824 11.8143V4.30944C5.58824 4.06176 5.4905 3.82422 5.31653 3.64908C5.14257 3.47394 4.90662 3.37555 4.66059 3.37555C4.43968 3.37168 4.22544 3.45176 4.06056 3.59981C3.89568 3.74787 3.79227 3.95303 3.77094 4.17442C3.58541 6.34599 3.35294 9.62023 3.35294 12.3769C3.35294 14.8298 4.64941 16.9766 6.59859 18.1603C7.81682 18.9029 8.93894 20.3206 8.82271 22.1388C8.53212 26.5945 7.82353 37.7067 7.82353 39.3764C7.82353 39.9732 8.05903 40.5456 8.47823 40.9676C8.89743 41.3897 9.46599 41.6267 10.0588 41.6267C10.6517 41.6267 11.2202 41.3897 11.6394 40.9676C12.0586 40.5456 12.2941 39.9732 12.2941 39.3764C12.2941 37.7067 11.5855 26.5945 11.2949 22.1388C11.1787 20.3206 12.3008 18.9029 13.5191 18.1603C14.5094 17.5597 15.3286 16.7116 15.8973 15.6982C16.466 14.6849 16.7648 13.5408 16.7647 12.3769C16.7647 9.62248 16.5322 6.34599 16.3467 4.17442C16.3254 3.95303 16.222 3.74787 16.0571 3.59981C15.8922 3.45176 15.678 3.37168 15.4571 3.37555C15.211 3.37555 14.9751 3.47394 14.8011 3.64908C14.6271 3.82422 14.5294 4.06176 14.5294 4.30944V11.8143ZM22.3529 12.9395C22.3529 9.50773 23.7071 6.21653 26.1175 3.78992C28.5279 1.36331 31.7971 4.96469e-05 35.2059 4.96469e-05C35.6505 4.96469e-05 36.0769 0.177866 36.3913 0.49438C36.7057 0.810895 36.8824 1.24018 36.8824 1.6878V20.8156C36.8824 21.5313 37.1193 25.08 37.3853 29.0114L37.3965 29.1981C37.6871 33.4918 38 38.1612 38 39.3742C38 40.8662 37.4112 42.2972 36.3632 43.3522C35.3152 44.4073 33.8939 45 32.4118 45C30.9297 45 29.5083 44.4073 28.4603 43.3522C27.4123 42.2972 26.8235 40.8662 26.8235 39.3742C26.8235 38.2175 27.1096 33.4985 27.3868 29.1711C27.5254 26.9861 27.6662 24.8685 27.7713 23.2978L27.8227 22.5034H26.2647C25.751 22.5034 25.2423 22.4015 24.7677 22.2036C24.2931 22.0057 23.8619 21.7156 23.4987 21.35C23.1354 20.9843 22.8473 20.5501 22.6507 20.0724C22.4541 19.5946 22.3529 19.0825 22.3529 18.5653V12.9395ZM31.2896 20.9327L31.2427 21.6393C31.0665 24.2223 30.8959 26.8057 30.7308 29.3894C30.4492 33.8001 30.1765 38.3593 30.1765 39.3742C30.1765 39.971 30.412 40.5434 30.8312 40.9654C31.2504 41.3874 31.8189 41.6245 32.4118 41.6245C33.0046 41.6245 33.5732 41.3874 33.9924 40.9654C34.4116 40.5434 34.6471 39.971 34.6471 39.3742C34.6471 38.294 34.3386 33.6898 34.0391 29.2387L34.0234 29.0046C33.7708 25.2713 33.5294 21.664 33.5294 20.8156V3.52407C31.3353 3.92009 29.3494 5.0802 27.9192 6.80144C26.489 8.52268 25.7055 10.6954 25.7059 12.9395V18.5653C25.7059 18.8759 25.9562 19.1279 26.2647 19.1279H29.6176C29.8476 19.128 30.075 19.1756 30.2858 19.2679C30.4967 19.3603 30.6864 19.4952 30.8432 19.6645C31 19.8338 31.1206 20.0337 31.1974 20.2519C31.2742 20.47 31.3056 20.7018 31.2896 20.9327Z" fill="black"/>
</svg>
